<mxfile host="65bd71144e">
    <diagram id="I86MAwql4gNrDcnPmCuA" name="第 1 页">
        <mxGraphModel dx="1161" dy="670" grid="1" gridSize="10" guides="1" tooltips="1" connect="1" arrows="1" fold="1" page="1" pageScale="1" pageWidth="827" pageHeight="1169" math="0" shadow="0">
            <root>
                <mxCell id="0"/>
                <mxCell id="1" parent="0"/>
                <mxCell id="145" value="&amp;nbsp; &amp;nbsp; &amp;nbsp;Worker线程池" style="rounded=1;whiteSpace=wrap;html=1;comic=1;fillColor=default;strokeColor=#b85450;align=left;verticalAlign=top;dashed=1;" vertex="1" parent="1">
                    <mxGeometry x="214" y="1940" width="386" height="130" as="geometry"/>
                </mxCell>
                <mxCell id="153" value="&amp;nbsp; &amp;nbsp; &amp;nbsp;Sub Reactor线程池" style="rounded=1;whiteSpace=wrap;html=1;comic=1;fillColor=default;strokeColor=#b85450;align=left;verticalAlign=top;dashed=1;" vertex="1" parent="1">
                    <mxGeometry x="156" y="1629.17" width="534" height="290.83" as="geometry"/>
                </mxCell>
                <mxCell id="2" value="单Reactor单线程" style="rounded=0;whiteSpace=wrap;html=1;comic=1;fillColor=#f8cecc;strokeColor=#b85450;" vertex="1" parent="1">
                    <mxGeometry x="354" y="40" width="120" height="40" as="geometry"/>
                </mxCell>
                <mxCell id="8" style="edgeStyle=none;html=1;exitX=1;exitY=0.5;exitDx=0;exitDy=0;entryX=0;entryY=0.5;entryDx=0;entryDy=0;sketch=1;" edge="1" parent="1" source="3" target="7">
                    <mxGeometry relative="1" as="geometry"/>
                </mxCell>
                <mxCell id="3" value="Client" style="rounded=0;whiteSpace=wrap;html=1;comic=1;fillColor=#dae8fc;strokeColor=#6c8ebf;" vertex="1" parent="1">
                    <mxGeometry x="60" y="160" width="60" height="30" as="geometry"/>
                </mxCell>
                <mxCell id="9" style="edgeStyle=none;html=1;exitX=1;exitY=0.5;exitDx=0;exitDy=0;entryX=0;entryY=0.5;entryDx=0;entryDy=0;sketch=1;" edge="1" parent="1" source="4" target="7">
                    <mxGeometry relative="1" as="geometry"/>
                </mxCell>
                <mxCell id="4" value="Client" style="rounded=0;whiteSpace=wrap;html=1;comic=1;fillColor=#dae8fc;strokeColor=#6c8ebf;" vertex="1" parent="1">
                    <mxGeometry x="60" y="210" width="60" height="30" as="geometry"/>
                </mxCell>
                <mxCell id="10" style="edgeStyle=none;sketch=1;html=1;exitX=1;exitY=0.5;exitDx=0;exitDy=0;entryX=0;entryY=0.5;entryDx=0;entryDy=0;" edge="1" parent="1" source="5" target="7">
                    <mxGeometry relative="1" as="geometry"/>
                </mxCell>
                <mxCell id="5" value="Client" style="rounded=0;whiteSpace=wrap;html=1;comic=1;fillColor=#dae8fc;strokeColor=#6c8ebf;" vertex="1" parent="1">
                    <mxGeometry x="60" y="260" width="60" height="30" as="geometry"/>
                </mxCell>
                <mxCell id="6" value="" style="rounded=1;whiteSpace=wrap;html=1;comic=1;fillColor=none;strokeColor=#6c8ebf;align=left;verticalAlign=top;" vertex="1" parent="1">
                    <mxGeometry x="170" y="130" width="440" height="250" as="geometry"/>
                </mxCell>
                <mxCell id="17" style="edgeStyle=none;sketch=1;html=1;exitX=0.5;exitY=1;exitDx=0;exitDy=0;entryX=0.5;entryY=0;entryDx=0;entryDy=0;" edge="1" parent="1" source="7" target="14">
                    <mxGeometry relative="1" as="geometry"/>
                </mxCell>
                <mxCell id="18" value="建立连接" style="edgeLabel;html=1;align=center;verticalAlign=middle;resizable=0;points=[];" vertex="1" connectable="0" parent="17">
                    <mxGeometry x="0.3494" y="2" relative="1" as="geometry">
                        <mxPoint x="15" y="-12" as="offset"/>
                    </mxGeometry>
                </mxCell>
                <mxCell id="22" style="edgeStyle=none;sketch=1;html=1;exitX=0.5;exitY=1;exitDx=0;exitDy=0;entryX=0.5;entryY=0;entryDx=0;entryDy=0;" edge="1" parent="1" source="7" target="20">
                    <mxGeometry relative="1" as="geometry"/>
                </mxCell>
                <mxCell id="23" value="处理请求" style="edgeLabel;html=1;align=center;verticalAlign=middle;resizable=0;points=[];" vertex="1" connectable="0" parent="22">
                    <mxGeometry x="-0.2281" y="-3" relative="1" as="geometry">
                        <mxPoint x="15" y="2" as="offset"/>
                    </mxGeometry>
                </mxCell>
                <mxCell id="16" value="" style="group" vertex="1" connectable="0" parent="1">
                    <mxGeometry x="190" y="260" width="130" height="70" as="geometry"/>
                </mxCell>
                <mxCell id="14" value="Acceptor" style="rounded=1;whiteSpace=wrap;html=1;comic=1;fillColor=none;strokeColor=#d79b00;align=center;absoluteArcSize=0;verticalAlign=top;" vertex="1" parent="16">
                    <mxGeometry width="130" height="70" as="geometry"/>
                </mxCell>
                <mxCell id="15" value="accept" style="rounded=1;whiteSpace=wrap;html=1;comic=1;fillColor=#ffe6cc;strokeColor=#d79b00;align=center;absoluteArcSize=0;verticalAlign=top;" vertex="1" parent="16">
                    <mxGeometry x="25" y="30" width="80" height="30" as="geometry"/>
                </mxCell>
                <mxCell id="20" value="Handler" style="rounded=1;whiteSpace=wrap;html=1;comic=1;fillColor=none;strokeColor=#d79b00;align=center;absoluteArcSize=0;verticalAlign=top;" vertex="1" parent="1">
                    <mxGeometry x="354" y="260" width="206" height="110" as="geometry"/>
                </mxCell>
                <mxCell id="21" value="read" style="rounded=1;whiteSpace=wrap;html=1;comic=1;fillColor=#ffe6cc;strokeColor=#d79b00;align=center;absoluteArcSize=0;verticalAlign=top;" vertex="1" parent="1">
                    <mxGeometry x="370" y="290" width="80" height="30" as="geometry"/>
                </mxCell>
                <mxCell id="24" value="send" style="rounded=1;whiteSpace=wrap;html=1;comic=1;fillColor=#ffe6cc;strokeColor=#d79b00;align=center;absoluteArcSize=0;verticalAlign=top;" vertex="1" parent="1">
                    <mxGeometry x="370" y="330" width="80" height="30" as="geometry"/>
                </mxCell>
                <mxCell id="25" value="业务处理" style="rounded=1;whiteSpace=wrap;html=1;comic=1;fillColor=#ffe6cc;strokeColor=#d79b00;align=center;absoluteArcSize=0;verticalAlign=top;" vertex="1" parent="1">
                    <mxGeometry x="467" y="290" width="80" height="30" as="geometry"/>
                </mxCell>
                <mxCell id="26" value="这里的逻辑其实是对应着《nio模型与epoll的联系》那里的nio示例代码，即一个线程完成&lt;br&gt;①连接 ②业务处理 ③ 读写 全部的操作" style="rounded=0;whiteSpace=wrap;html=1;comic=1;fillColor=#ffe6cc;strokeColor=#d79b00;align=left;absoluteArcSize=0;verticalAlign=middle;" vertex="1" parent="1">
                    <mxGeometry x="620" y="140" width="190" height="90" as="geometry"/>
                </mxCell>
                <mxCell id="27" value="&lt;font style=&quot;font-size: 10px&quot; color=&quot;#6262fc&quot;&gt;OP_ACCEPT事件&lt;/font&gt;" style="rounded=0;whiteSpace=wrap;html=1;comic=1;fillColor=none;strokeColor=none;align=center;absoluteArcSize=0;verticalAlign=middle;sketch=1;" vertex="1" parent="1">
                    <mxGeometry x="180" y="210" width="100" height="30" as="geometry"/>
                </mxCell>
                <mxCell id="28" value="&lt;font style=&quot;font-size: 10px&quot; color=&quot;#6262fc&quot;&gt;OP_READ事件&lt;/font&gt;" style="rounded=0;whiteSpace=wrap;html=1;comic=1;fillColor=none;strokeColor=none;align=center;absoluteArcSize=0;verticalAlign=middle;sketch=1;" vertex="1" parent="1">
                    <mxGeometry x="407" y="210" width="100" height="30" as="geometry"/>
                </mxCell>
                <mxCell id="32" style="edgeStyle=none;sketch=1;html=1;exitX=1;exitY=0.5;exitDx=0;exitDy=0;entryX=0;entryY=0.5;entryDx=0;entryDy=0;fontSize=10;fontColor=#6262FC;" edge="1" parent="1" source="29" target="30">
                    <mxGeometry relative="1" as="geometry"/>
                </mxCell>
                <mxCell id="33" style="edgeStyle=none;sketch=1;html=1;exitX=1;exitY=0.5;exitDx=0;exitDy=0;entryX=0;entryY=0.5;entryDx=0;entryDy=0;fontSize=10;fontColor=#6262FC;" edge="1" parent="1" source="29" target="31">
                    <mxGeometry relative="1" as="geometry"/>
                </mxCell>
                <mxCell id="29" value="模式优缺点" style="rounded=0;whiteSpace=wrap;html=1;comic=1;fillColor=#ffe6cc;strokeColor=#d79b00;align=center;absoluteArcSize=0;verticalAlign=middle;" vertex="1" parent="1">
                    <mxGeometry x="74" y="490" width="96" height="30" as="geometry"/>
                </mxCell>
                <mxCell id="30" value="优点：模型简单, 线程数量少" style="rounded=0;whiteSpace=wrap;html=1;comic=1;fillColor=#d5e8d4;strokeColor=#82b366;align=center;absoluteArcSize=0;verticalAlign=middle;" vertex="1" parent="1">
                    <mxGeometry x="217" y="450" width="163" height="30" as="geometry"/>
                </mxCell>
                <mxCell id="31" value="缺点：&lt;br&gt;① 无法充分利用多核CPU的性能，压力全部压到一个核上&lt;br&gt;②&amp;nbsp;⼀个线程挂掉或循环, 整个服务挂掉，不可靠" style="rounded=0;whiteSpace=wrap;html=1;comic=1;fillColor=#dae8fc;strokeColor=#6c8ebf;align=left;absoluteArcSize=0;verticalAlign=middle;" vertex="1" parent="1">
                    <mxGeometry x="217" y="510" width="203" height="80" as="geometry"/>
                </mxCell>
                <mxCell id="37" value="单Reactor多线程" style="rounded=0;whiteSpace=wrap;html=1;comic=1;fillColor=#f8cecc;strokeColor=#b85450;" vertex="1" parent="1">
                    <mxGeometry x="354" y="630" width="120" height="40" as="geometry"/>
                </mxCell>
                <mxCell id="38" value="&amp;nbsp; &amp;nbsp; &amp;nbsp;Reactor主线程" style="rounded=1;whiteSpace=wrap;html=1;comic=1;fillColor=none;strokeColor=#6c8ebf;align=left;verticalAlign=top;" vertex="1" parent="1">
                    <mxGeometry x="170" y="700" width="400" height="260" as="geometry"/>
                </mxCell>
                <mxCell id="48" style="edgeStyle=none;sketch=1;html=1;exitX=1;exitY=0.5;exitDx=0;exitDy=0;entryX=0;entryY=0.5;entryDx=0;entryDy=0;fontSize=10;fontColor=#6262FC;" edge="1" parent="1" source="39" target="45">
                    <mxGeometry relative="1" as="geometry"/>
                </mxCell>
                <mxCell id="39" value="Client" style="rounded=0;whiteSpace=wrap;html=1;comic=1;fillColor=#dae8fc;strokeColor=#6c8ebf;" vertex="1" parent="1">
                    <mxGeometry x="60" y="750" width="60" height="30" as="geometry"/>
                </mxCell>
                <mxCell id="49" style="edgeStyle=none;sketch=1;html=1;exitX=1;exitY=0.5;exitDx=0;exitDy=0;fontSize=10;fontColor=#6262FC;entryX=0;entryY=0.5;entryDx=0;entryDy=0;" edge="1" parent="1" source="40" target="45">
                    <mxGeometry relative="1" as="geometry"/>
                </mxCell>
                <mxCell id="40" value="Client" style="rounded=0;whiteSpace=wrap;html=1;comic=1;fillColor=#dae8fc;strokeColor=#6c8ebf;" vertex="1" parent="1">
                    <mxGeometry x="60" y="800" width="60" height="30" as="geometry"/>
                </mxCell>
                <mxCell id="50" style="edgeStyle=none;sketch=1;html=1;exitX=1;exitY=0.5;exitDx=0;exitDy=0;entryX=0;entryY=0.5;entryDx=0;entryDy=0;fontSize=10;fontColor=#6262FC;" edge="1" parent="1" source="41" target="45">
                    <mxGeometry relative="1" as="geometry"/>
                </mxCell>
                <mxCell id="41" value="Client" style="rounded=0;whiteSpace=wrap;html=1;comic=1;fillColor=#dae8fc;strokeColor=#6c8ebf;" vertex="1" parent="1">
                    <mxGeometry x="60" y="850" width="60" height="30" as="geometry"/>
                </mxCell>
                <mxCell id="43" value="" style="group" vertex="1" connectable="0" parent="1">
                    <mxGeometry x="230" y="140" width="200" height="70" as="geometry"/>
                </mxCell>
                <mxCell id="7" value="Reactor" style="rounded=1;whiteSpace=wrap;html=1;comic=1;fillColor=none;strokeColor=#d79b00;align=center;absoluteArcSize=0;verticalAlign=top;" vertex="1" parent="43">
                    <mxGeometry width="200" height="70" as="geometry"/>
                </mxCell>
                <mxCell id="12" value="select" style="rounded=1;whiteSpace=wrap;html=1;comic=1;fillColor=#ffe6cc;strokeColor=#d79b00;align=center;absoluteArcSize=0;verticalAlign=top;" vertex="1" parent="43">
                    <mxGeometry x="10" y="30" width="80" height="30" as="geometry"/>
                </mxCell>
                <mxCell id="13" value="dispatch" style="rounded=1;whiteSpace=wrap;html=1;comic=1;fillColor=#ffe6cc;strokeColor=#d79b00;align=center;absoluteArcSize=0;verticalAlign=top;" vertex="1" parent="43">
                    <mxGeometry x="104" y="30" width="76" height="30" as="geometry"/>
                </mxCell>
                <mxCell id="44" value="" style="group" vertex="1" connectable="0" parent="1">
                    <mxGeometry x="220" y="730" width="200" height="70" as="geometry"/>
                </mxCell>
                <mxCell id="45" value="Reactor" style="rounded=1;whiteSpace=wrap;html=1;comic=1;fillColor=none;strokeColor=#d79b00;align=center;absoluteArcSize=0;verticalAlign=top;" vertex="1" parent="44">
                    <mxGeometry width="200" height="70" as="geometry"/>
                </mxCell>
                <mxCell id="46" value="select" style="rounded=1;whiteSpace=wrap;html=1;comic=1;fillColor=#ffe6cc;strokeColor=#d79b00;align=center;absoluteArcSize=0;verticalAlign=top;" vertex="1" parent="44">
                    <mxGeometry x="10" y="30" width="80" height="30" as="geometry"/>
                </mxCell>
                <mxCell id="47" value="dispatch" style="rounded=1;whiteSpace=wrap;html=1;comic=1;fillColor=#ffe6cc;strokeColor=#d79b00;align=center;absoluteArcSize=0;verticalAlign=top;" vertex="1" parent="44">
                    <mxGeometry x="104" y="30" width="76" height="30" as="geometry"/>
                </mxCell>
                <mxCell id="54" style="edgeStyle=none;sketch=1;html=1;exitX=0.5;exitY=1;exitDx=0;exitDy=0;entryX=0.5;entryY=0;entryDx=0;entryDy=0;fontSize=10;fontColor=#6262FC;" edge="1" parent="1" source="45" target="52">
                    <mxGeometry relative="1" as="geometry"/>
                </mxCell>
                <mxCell id="73" value="&lt;font color=&quot;#000000&quot;&gt;建立连接&lt;/font&gt;" style="edgeLabel;html=1;align=center;verticalAlign=middle;resizable=0;points=[];fontSize=10;fontColor=#6262FC;" vertex="1" connectable="0" parent="54">
                    <mxGeometry x="0.226" y="-1" relative="1" as="geometry">
                        <mxPoint x="3" y="-4" as="offset"/>
                    </mxGeometry>
                </mxCell>
                <mxCell id="55" value="Redis6.0之前的版本采用的都是这种单Reactor模型。&lt;br&gt;原因：业务操作一般耗时很短，可以保证高吞吐量运行" style="rounded=0;whiteSpace=wrap;html=1;comic=1;fillColor=#ffe6cc;strokeColor=#d79b00;align=left;absoluteArcSize=0;verticalAlign=middle;sketch=1;" vertex="1" parent="1">
                    <mxGeometry x="620" y="265" width="173" height="60" as="geometry"/>
                </mxCell>
                <mxCell id="85" style="edgeStyle=none;sketch=1;html=1;exitX=0.5;exitY=1;exitDx=0;exitDy=0;entryX=0.5;entryY=0;entryDx=0;entryDy=0;fontSize=10;fontColor=#000000;" edge="1" parent="1" source="57" target="80">
                    <mxGeometry relative="1" as="geometry"/>
                </mxCell>
                <mxCell id="57" value="Handler1" style="rounded=1;whiteSpace=wrap;html=1;comic=1;fillColor=none;strokeColor=#d79b00;align=center;absoluteArcSize=0;verticalAlign=top;" vertex="1" parent="1">
                    <mxGeometry x="310" y="840" width="110" height="110" as="geometry"/>
                </mxCell>
                <mxCell id="58" value="read" style="rounded=1;whiteSpace=wrap;html=1;comic=1;fillColor=#ffe6cc;strokeColor=#d79b00;align=center;absoluteArcSize=0;verticalAlign=top;" vertex="1" parent="1">
                    <mxGeometry x="325" y="870" width="80" height="30" as="geometry"/>
                </mxCell>
                <mxCell id="61" value="send" style="rounded=1;whiteSpace=wrap;html=1;comic=1;fillColor=#ffe6cc;strokeColor=#d79b00;align=center;absoluteArcSize=0;verticalAlign=top;" vertex="1" parent="1">
                    <mxGeometry x="325" y="910" width="80" height="30" as="geometry"/>
                </mxCell>
                <mxCell id="52" value="Acceptor" style="rounded=1;whiteSpace=wrap;html=1;comic=1;fillColor=none;strokeColor=#d79b00;align=center;absoluteArcSize=0;verticalAlign=top;" vertex="1" parent="1">
                    <mxGeometry x="200" y="840" width="100" height="70" as="geometry"/>
                </mxCell>
                <mxCell id="53" value="accept" style="rounded=1;whiteSpace=wrap;html=1;comic=1;fillColor=#ffe6cc;strokeColor=#d79b00;align=center;absoluteArcSize=0;verticalAlign=top;" vertex="1" parent="1">
                    <mxGeometry x="210" y="870" width="80" height="30" as="geometry"/>
                </mxCell>
                <mxCell id="86" style="edgeStyle=none;sketch=1;html=1;exitX=0.5;exitY=1;exitDx=0;exitDy=0;entryX=0.5;entryY=0;entryDx=0;entryDy=0;fontSize=10;fontColor=#000000;" edge="1" parent="1" source="68" target="83">
                    <mxGeometry relative="1" as="geometry"/>
                </mxCell>
                <mxCell id="68" value="Handler2" style="rounded=1;whiteSpace=wrap;html=1;comic=1;fillColor=none;strokeColor=#d79b00;align=center;absoluteArcSize=0;verticalAlign=top;" vertex="1" parent="1">
                    <mxGeometry x="437" y="840" width="110" height="110" as="geometry"/>
                </mxCell>
                <mxCell id="69" value="read" style="rounded=1;whiteSpace=wrap;html=1;comic=1;fillColor=#ffe6cc;strokeColor=#d79b00;align=center;absoluteArcSize=0;verticalAlign=top;" vertex="1" parent="1">
                    <mxGeometry x="452" y="870" width="80" height="30" as="geometry"/>
                </mxCell>
                <mxCell id="70" value="send" style="rounded=1;whiteSpace=wrap;html=1;comic=1;fillColor=#ffe6cc;strokeColor=#d79b00;align=center;absoluteArcSize=0;verticalAlign=top;" vertex="1" parent="1">
                    <mxGeometry x="452" y="910" width="80" height="30" as="geometry"/>
                </mxCell>
                <mxCell id="71" style="edgeStyle=none;sketch=1;html=1;exitX=0.5;exitY=1;exitDx=0;exitDy=0;entryX=0.5;entryY=0;entryDx=0;entryDy=0;fontSize=10;fontColor=#6262FC;" edge="1" parent="1" source="45" target="57">
                    <mxGeometry relative="1" as="geometry"/>
                </mxCell>
                <mxCell id="74" value="处理请求" style="edgeLabel;html=1;align=center;verticalAlign=middle;resizable=0;points=[];fontSize=10;fontColor=#000000;" vertex="1" connectable="0" parent="71">
                    <mxGeometry x="0.467" relative="1" as="geometry">
                        <mxPoint x="-13" y="-10" as="offset"/>
                    </mxGeometry>
                </mxCell>
                <mxCell id="72" style="edgeStyle=none;sketch=1;html=1;exitX=0.5;exitY=1;exitDx=0;exitDy=0;entryX=0.5;entryY=0;entryDx=0;entryDy=0;fontSize=10;fontColor=#6262FC;" edge="1" parent="1" source="45" target="68">
                    <mxGeometry relative="1" as="geometry"/>
                </mxCell>
                <mxCell id="75" value="处理请求" style="edgeLabel;html=1;align=center;verticalAlign=middle;resizable=0;points=[];fontSize=10;fontColor=#000000;" vertex="1" connectable="0" parent="72">
                    <mxGeometry x="-0.1485" y="-1" relative="1" as="geometry">
                        <mxPoint x="16" y="2" as="offset"/>
                    </mxGeometry>
                </mxCell>
                <mxCell id="76" value="&amp;nbsp; &amp;nbsp; &amp;nbsp;Worker线程池" style="rounded=1;whiteSpace=wrap;html=1;comic=1;fillColor=none;strokeColor=#b85450;align=left;verticalAlign=top;dashed=1;" vertex="1" parent="1">
                    <mxGeometry x="170" y="980" width="400" height="150" as="geometry"/>
                </mxCell>
                <mxCell id="77" value="Worker线程1" style="rounded=1;whiteSpace=wrap;html=1;comic=1;fillColor=none;strokeColor=#6c8ebf;align=left;verticalAlign=top;" vertex="1" parent="1">
                    <mxGeometry x="187" y="1010" width="156" height="110" as="geometry"/>
                </mxCell>
                <mxCell id="80" value="Worker" style="rounded=1;whiteSpace=wrap;html=1;comic=1;fillColor=none;strokeColor=#d79b00;align=center;absoluteArcSize=0;verticalAlign=top;" vertex="1" parent="1">
                    <mxGeometry x="210" y="1040" width="110" height="70" as="geometry"/>
                </mxCell>
                <mxCell id="81" value="业务处理" style="rounded=1;whiteSpace=wrap;html=1;comic=1;fillColor=#ffe6cc;strokeColor=#d79b00;align=center;absoluteArcSize=0;verticalAlign=top;" vertex="1" parent="1">
                    <mxGeometry x="225" y="1070" width="80" height="30" as="geometry"/>
                </mxCell>
                <mxCell id="82" value="Worker线程2" style="rounded=1;whiteSpace=wrap;html=1;comic=1;fillColor=none;strokeColor=#6c8ebf;align=left;verticalAlign=top;" vertex="1" parent="1">
                    <mxGeometry x="376" y="1010" width="156" height="110" as="geometry"/>
                </mxCell>
                <mxCell id="83" value="Worker" style="rounded=1;whiteSpace=wrap;html=1;comic=1;fillColor=none;strokeColor=#d79b00;align=center;absoluteArcSize=0;verticalAlign=top;" vertex="1" parent="1">
                    <mxGeometry x="399" y="1040" width="110" height="70" as="geometry"/>
                </mxCell>
                <mxCell id="84" value="业务处理" style="rounded=1;whiteSpace=wrap;html=1;comic=1;fillColor=#ffe6cc;strokeColor=#d79b00;align=center;absoluteArcSize=0;verticalAlign=top;" vertex="1" parent="1">
                    <mxGeometry x="414" y="1070" width="80" height="30" as="geometry"/>
                </mxCell>
                <mxCell id="87" value="Reactor主线程负责：&lt;br&gt;① 建立连接&lt;br&gt;② IO读写&lt;br&gt;③ 将读取到的内容分配到Worker线程处理" style="rounded=0;whiteSpace=wrap;html=1;comic=1;fillColor=#f8cecc;strokeColor=#b85450;align=left;absoluteArcSize=0;verticalAlign=middle;" vertex="1" parent="1">
                    <mxGeometry x="590" y="720" width="190" height="90" as="geometry"/>
                </mxCell>
                <mxCell id="88" value="Worker线程负责：&lt;br&gt;① 使用分配到的内容进行业务处理&lt;br&gt;② 将处理结果交付到Handler，最后Reactor线程将处理结果send到客户端" style="rounded=0;whiteSpace=wrap;html=1;comic=1;fillColor=#e1d5e7;strokeColor=#9673a6;align=left;absoluteArcSize=0;verticalAlign=middle;" vertex="1" parent="1">
                    <mxGeometry x="590" y="820" width="190" height="90" as="geometry"/>
                </mxCell>
                <mxCell id="89" style="edgeStyle=none;sketch=1;html=1;exitX=1;exitY=0.5;exitDx=0;exitDy=0;entryX=0;entryY=0.5;entryDx=0;entryDy=0;fontSize=10;fontColor=#6262FC;" edge="1" source="91" target="92" parent="1">
                    <mxGeometry relative="1" as="geometry"/>
                </mxCell>
                <mxCell id="90" style="edgeStyle=none;sketch=1;html=1;exitX=1;exitY=0.5;exitDx=0;exitDy=0;entryX=0;entryY=0.5;entryDx=0;entryDy=0;fontSize=10;fontColor=#6262FC;" edge="1" source="91" target="93" parent="1">
                    <mxGeometry relative="1" as="geometry"/>
                </mxCell>
                <mxCell id="91" value="模式优缺点" style="rounded=0;whiteSpace=wrap;html=1;comic=1;fillColor=#ffe6cc;strokeColor=#d79b00;align=center;absoluteArcSize=0;verticalAlign=middle;" vertex="1" parent="1">
                    <mxGeometry x="60" y="1200" width="96" height="30" as="geometry"/>
                </mxCell>
                <mxCell id="92" value="优点：相比但Reactor单线程，充分利用到了多核CPU的性能" style="rounded=0;whiteSpace=wrap;html=1;comic=1;fillColor=#d5e8d4;strokeColor=#82b366;align=left;absoluteArcSize=0;verticalAlign=middle;" vertex="1" parent="1">
                    <mxGeometry x="203" y="1160" width="187" height="40" as="geometry"/>
                </mxCell>
                <mxCell id="93" value="缺点：&lt;br&gt;① 建立连接和读写操作都由Reactor主线程完成，如果是业务处理压力较小，而IO处理压力较大的场景下，就只有执行Reactor主线程的CPU核心压力较大，而其余核心压力较小，实际上是CPU的性能还是利用地不够充分&lt;br&gt;② 在并发量很大的情况下，可能单核读写速度跟不上请求的速度，这样信息积压在网卡缓存上，导致服务器总吞吐量变小" style="rounded=0;whiteSpace=wrap;html=1;comic=1;fillColor=#dae8fc;strokeColor=#6c8ebf;align=left;absoluteArcSize=0;verticalAlign=middle;" vertex="1" parent="1">
                    <mxGeometry x="203" y="1220" width="267" height="140" as="geometry"/>
                </mxCell>
                <mxCell id="94" value="主从Reactor多线程" style="rounded=0;whiteSpace=wrap;html=1;comic=1;fillColor=#f8cecc;strokeColor=#b85450;" vertex="1" parent="1">
                    <mxGeometry x="354" y="1410" width="120" height="40" as="geometry"/>
                </mxCell>
                <mxCell id="95" value="&amp;nbsp; &amp;nbsp; &amp;nbsp;Reactor主线程" style="rounded=1;whiteSpace=wrap;html=1;comic=1;fillColor=default;strokeColor=#6c8ebf;align=left;verticalAlign=top;" vertex="1" parent="1">
                    <mxGeometry x="175" y="1490" width="455" height="120" as="geometry"/>
                </mxCell>
                <mxCell id="96" style="edgeStyle=none;sketch=1;html=1;exitX=1;exitY=0.5;exitDx=0;exitDy=0;entryX=0;entryY=0.5;entryDx=0;entryDy=0;fontSize=10;fontColor=#6262FC;" edge="1" source="97" target="103" parent="1">
                    <mxGeometry relative="1" as="geometry"/>
                </mxCell>
                <mxCell id="97" value="Client" style="rounded=0;whiteSpace=wrap;html=1;comic=1;fillColor=#dae8fc;strokeColor=#6c8ebf;" vertex="1" parent="1">
                    <mxGeometry x="70" y="1500" width="60" height="30" as="geometry"/>
                </mxCell>
                <mxCell id="98" style="edgeStyle=none;sketch=1;html=1;exitX=1;exitY=0.5;exitDx=0;exitDy=0;fontSize=10;fontColor=#6262FC;entryX=0;entryY=0.5;entryDx=0;entryDy=0;" edge="1" source="99" target="103" parent="1">
                    <mxGeometry relative="1" as="geometry"/>
                </mxCell>
                <mxCell id="99" value="Client" style="rounded=0;whiteSpace=wrap;html=1;comic=1;fillColor=#dae8fc;strokeColor=#6c8ebf;" vertex="1" parent="1">
                    <mxGeometry x="70" y="1550" width="60" height="30" as="geometry"/>
                </mxCell>
                <mxCell id="100" style="edgeStyle=none;sketch=1;html=1;exitX=1;exitY=0.5;exitDx=0;exitDy=0;entryX=0;entryY=0.5;entryDx=0;entryDy=0;fontSize=10;fontColor=#6262FC;" edge="1" source="101" target="103" parent="1">
                    <mxGeometry relative="1" as="geometry"/>
                </mxCell>
                <mxCell id="101" value="Client" style="rounded=0;whiteSpace=wrap;html=1;comic=1;fillColor=#dae8fc;strokeColor=#6c8ebf;" vertex="1" parent="1">
                    <mxGeometry x="70" y="1600" width="60" height="30" as="geometry"/>
                </mxCell>
                <mxCell id="129" style="edgeStyle=none;sketch=1;html=1;exitX=1;exitY=0.5;exitDx=0;exitDy=0;entryX=0;entryY=0.5;entryDx=0;entryDy=0;fontSize=10;fontColor=#6262FC;" edge="1" parent="1" target="135" source="103">
                    <mxGeometry relative="1" as="geometry">
                        <mxPoint x="320" y="1810" as="sourcePoint"/>
                    </mxGeometry>
                </mxCell>
                <mxCell id="130" value="&lt;font color=&quot;#000000&quot;&gt;建立连接&lt;/font&gt;" style="edgeLabel;html=1;align=center;verticalAlign=middle;resizable=0;points=[];fontSize=10;fontColor=#6262FC;" vertex="1" connectable="0" parent="129">
                    <mxGeometry x="0.226" y="-1" relative="1" as="geometry">
                        <mxPoint x="-10" y="-1" as="offset"/>
                    </mxGeometry>
                </mxCell>
                <mxCell id="131" style="edgeStyle=none;sketch=1;html=1;exitX=0.5;exitY=1;exitDx=0;exitDy=0;entryX=0.5;entryY=0;entryDx=0;entryDy=0;fontSize=10;fontColor=#000000;" edge="1" parent="1" source="132" target="147">
                    <mxGeometry relative="1" as="geometry"/>
                </mxCell>
                <mxCell id="137" style="edgeStyle=none;sketch=1;html=1;exitX=0.5;exitY=1;exitDx=0;exitDy=0;entryX=0.5;entryY=0;entryDx=0;entryDy=0;fontSize=10;fontColor=#000000;" edge="1" parent="1" source="138" target="150">
                    <mxGeometry relative="1" as="geometry">
                        <mxPoint x="290" y="1879.17" as="targetPoint"/>
                    </mxGeometry>
                </mxCell>
                <mxCell id="146" value="Worker线程1" style="rounded=1;whiteSpace=wrap;html=1;comic=1;fillColor=none;strokeColor=#6c8ebf;align=left;verticalAlign=top;" vertex="1" parent="1">
                    <mxGeometry x="230" y="1963" width="156" height="97" as="geometry"/>
                </mxCell>
                <mxCell id="147" value="Worker" style="rounded=1;whiteSpace=wrap;html=1;comic=1;fillColor=none;strokeColor=#d79b00;align=center;absoluteArcSize=0;verticalAlign=top;" vertex="1" parent="1">
                    <mxGeometry x="254" y="1987" width="110" height="64" as="geometry"/>
                </mxCell>
                <mxCell id="148" value="业务处理" style="rounded=1;whiteSpace=wrap;html=1;comic=1;fillColor=#ffe6cc;strokeColor=#d79b00;align=center;absoluteArcSize=0;verticalAlign=top;" vertex="1" parent="1">
                    <mxGeometry x="269" y="2010" width="80" height="30" as="geometry"/>
                </mxCell>
                <mxCell id="149" value="Worker线程2" style="rounded=1;whiteSpace=wrap;html=1;comic=1;fillColor=none;strokeColor=#6c8ebf;align=left;verticalAlign=top;" vertex="1" parent="1">
                    <mxGeometry x="420" y="1963" width="156" height="97" as="geometry"/>
                </mxCell>
                <mxCell id="150" value="Worker" style="rounded=1;whiteSpace=wrap;html=1;comic=1;fillColor=none;strokeColor=#d79b00;align=center;absoluteArcSize=0;verticalAlign=top;" vertex="1" parent="1">
                    <mxGeometry x="443" y="1987" width="110" height="63" as="geometry"/>
                </mxCell>
                <mxCell id="151" value="业务处理" style="rounded=1;whiteSpace=wrap;html=1;comic=1;fillColor=#ffe6cc;strokeColor=#d79b00;align=center;absoluteArcSize=0;verticalAlign=top;" vertex="1" parent="1">
                    <mxGeometry x="458" y="2010" width="80" height="30" as="geometry"/>
                </mxCell>
                <mxCell id="152" value="" style="group" vertex="1" connectable="0" parent="1">
                    <mxGeometry x="494" y="1520" width="100" height="70" as="geometry"/>
                </mxCell>
                <mxCell id="135" value="Acceptor" style="rounded=1;whiteSpace=wrap;html=1;comic=1;fillColor=none;strokeColor=#d79b00;align=center;absoluteArcSize=0;verticalAlign=top;" vertex="1" parent="152">
                    <mxGeometry width="100" height="70" as="geometry"/>
                </mxCell>
                <mxCell id="136" value="accept" style="rounded=1;whiteSpace=wrap;html=1;comic=1;fillColor=#ffe6cc;strokeColor=#d79b00;align=center;absoluteArcSize=0;verticalAlign=top;" vertex="1" parent="152">
                    <mxGeometry x="10" y="30" width="80" height="30" as="geometry"/>
                </mxCell>
                <mxCell id="157" value="" style="group" vertex="1" connectable="0" parent="1">
                    <mxGeometry x="225" y="1520" width="195" height="70" as="geometry"/>
                </mxCell>
                <mxCell id="103" value="Reactor" style="rounded=1;whiteSpace=wrap;html=1;comic=1;fillColor=none;strokeColor=#d79b00;align=center;absoluteArcSize=0;verticalAlign=top;" vertex="1" parent="157">
                    <mxGeometry width="195" height="70" as="geometry"/>
                </mxCell>
                <mxCell id="104" value="select" style="rounded=1;whiteSpace=wrap;html=1;comic=1;fillColor=#ffe6cc;strokeColor=#d79b00;align=center;absoluteArcSize=0;verticalAlign=top;" vertex="1" parent="157">
                    <mxGeometry x="10" y="30" width="80" height="30" as="geometry"/>
                </mxCell>
                <mxCell id="105" value="dispatch" style="rounded=1;whiteSpace=wrap;html=1;comic=1;fillColor=#ffe6cc;strokeColor=#d79b00;align=center;absoluteArcSize=0;verticalAlign=top;" vertex="1" parent="157">
                    <mxGeometry x="104" y="30" width="76" height="30" as="geometry"/>
                </mxCell>
                <mxCell id="167" value="" style="group" vertex="1" connectable="0" parent="1">
                    <mxGeometry x="170" y="1659.58" width="240" height="240" as="geometry"/>
                </mxCell>
                <mxCell id="164" value="&amp;nbsp; Sub Reactor线程1" style="rounded=1;whiteSpace=wrap;html=1;comic=1;fillColor=none;strokeColor=#6c8ebf;align=left;verticalAlign=top;" vertex="1" parent="167">
                    <mxGeometry width="240" height="240" as="geometry"/>
                </mxCell>
                <mxCell id="132" value="Handler1" style="rounded=1;whiteSpace=wrap;html=1;comic=1;fillColor=none;strokeColor=#d79b00;align=center;absoluteArcSize=0;verticalAlign=top;" vertex="1" parent="167">
                    <mxGeometry x="11.5" y="118.3900000000001" width="98.5" height="110" as="geometry"/>
                </mxCell>
                <mxCell id="133" value="read" style="rounded=1;whiteSpace=wrap;html=1;comic=1;fillColor=#ffe6cc;strokeColor=#d79b00;align=center;absoluteArcSize=0;verticalAlign=top;" vertex="1" parent="167">
                    <mxGeometry x="20.75" y="148.3900000000001" width="80" height="30" as="geometry"/>
                </mxCell>
                <mxCell id="134" value="send" style="rounded=1;whiteSpace=wrap;html=1;comic=1;fillColor=#ffe6cc;strokeColor=#d79b00;align=center;absoluteArcSize=0;verticalAlign=top;" vertex="1" parent="167">
                    <mxGeometry x="20" y="188.3900000000001" width="80" height="30" as="geometry"/>
                </mxCell>
                <mxCell id="138" value="Handler2" style="rounded=1;whiteSpace=wrap;html=1;comic=1;fillColor=none;strokeColor=#d79b00;align=center;absoluteArcSize=0;verticalAlign=top;" vertex="1" parent="167">
                    <mxGeometry x="127.25" y="118.3900000000001" width="101.5" height="110" as="geometry"/>
                </mxCell>
                <mxCell id="139" value="read" style="rounded=1;whiteSpace=wrap;html=1;comic=1;fillColor=#ffe6cc;strokeColor=#d79b00;align=center;absoluteArcSize=0;verticalAlign=top;" vertex="1" parent="167">
                    <mxGeometry x="138.75" y="148.3900000000001" width="80" height="30" as="geometry"/>
                </mxCell>
                <mxCell id="140" value="send" style="rounded=1;whiteSpace=wrap;html=1;comic=1;fillColor=#ffe6cc;strokeColor=#d79b00;align=center;absoluteArcSize=0;verticalAlign=top;" vertex="1" parent="167">
                    <mxGeometry x="138.75" y="188.3900000000001" width="80" height="30" as="geometry"/>
                </mxCell>
                <mxCell id="141" style="edgeStyle=none;sketch=1;html=1;exitX=0.5;exitY=1;exitDx=0;exitDy=0;entryX=0.5;entryY=0;entryDx=0;entryDy=0;fontSize=10;fontColor=#6262FC;" edge="1" parent="167" target="132" source="159">
                    <mxGeometry relative="1" as="geometry">
                        <mxPoint x="187" y="240.42000000000007" as="sourcePoint"/>
                    </mxGeometry>
                </mxCell>
                <mxCell id="142" value="处理请求" style="edgeLabel;html=1;align=center;verticalAlign=middle;resizable=0;points=[];fontSize=10;fontColor=#000000;" vertex="1" connectable="0" parent="141">
                    <mxGeometry x="0.467" relative="1" as="geometry">
                        <mxPoint x="13" y="-8" as="offset"/>
                    </mxGeometry>
                </mxCell>
                <mxCell id="143" style="edgeStyle=none;sketch=1;html=1;exitX=0.5;exitY=1;exitDx=0;exitDy=0;entryX=0.5;entryY=0;entryDx=0;entryDy=0;fontSize=10;fontColor=#6262FC;" edge="1" parent="167" target="138" source="159">
                    <mxGeometry relative="1" as="geometry">
                        <mxPoint x="187" y="240.42000000000007" as="sourcePoint"/>
                    </mxGeometry>
                </mxCell>
                <mxCell id="144" value="处理请求" style="edgeLabel;html=1;align=center;verticalAlign=middle;resizable=0;points=[];fontSize=10;fontColor=#000000;" vertex="1" connectable="0" parent="143">
                    <mxGeometry x="-0.1485" y="-1" relative="1" as="geometry">
                        <mxPoint x="1" as="offset"/>
                    </mxGeometry>
                </mxCell>
                <mxCell id="159" value="SubReactor" style="rounded=1;whiteSpace=wrap;html=1;comic=1;fillColor=none;strokeColor=#d79b00;align=center;absoluteArcSize=0;verticalAlign=top;" vertex="1" parent="167">
                    <mxGeometry x="23.5" y="24.420000000000073" width="190" height="66" as="geometry"/>
                </mxCell>
                <mxCell id="160" value="select" style="rounded=1;whiteSpace=wrap;html=1;comic=1;fillColor=#ffe6cc;strokeColor=#d79b00;align=center;absoluteArcSize=0;verticalAlign=top;" vertex="1" parent="167">
                    <mxGeometry x="33.5" y="50.42000000000007" width="80" height="30" as="geometry"/>
                </mxCell>
                <mxCell id="161" value="dispatch" style="rounded=1;whiteSpace=wrap;html=1;comic=1;fillColor=#ffe6cc;strokeColor=#d79b00;align=center;absoluteArcSize=0;verticalAlign=top;" vertex="1" parent="167">
                    <mxGeometry x="126.5" y="50.42000000000007" width="76" height="30" as="geometry"/>
                </mxCell>
                <mxCell id="168" value="" style="group" vertex="1" connectable="0" parent="1">
                    <mxGeometry x="430" y="1660" width="240" height="240" as="geometry"/>
                </mxCell>
                <mxCell id="169" value="&amp;nbsp; Sub Reactor线程2" style="rounded=1;whiteSpace=wrap;html=1;comic=1;fillColor=none;strokeColor=#6c8ebf;align=left;verticalAlign=top;" vertex="1" parent="168">
                    <mxGeometry width="240" height="240" as="geometry"/>
                </mxCell>
                <mxCell id="170" value="Handler1" style="rounded=1;whiteSpace=wrap;html=1;comic=1;fillColor=none;strokeColor=#d79b00;align=center;absoluteArcSize=0;verticalAlign=top;" vertex="1" parent="168">
                    <mxGeometry x="11.5" y="118.3900000000001" width="98.5" height="110" as="geometry"/>
                </mxCell>
                <mxCell id="171" value="read" style="rounded=1;whiteSpace=wrap;html=1;comic=1;fillColor=#ffe6cc;strokeColor=#d79b00;align=center;absoluteArcSize=0;verticalAlign=top;" vertex="1" parent="168">
                    <mxGeometry x="20.75" y="148.3900000000001" width="80" height="30" as="geometry"/>
                </mxCell>
                <mxCell id="172" value="send" style="rounded=1;whiteSpace=wrap;html=1;comic=1;fillColor=#ffe6cc;strokeColor=#d79b00;align=center;absoluteArcSize=0;verticalAlign=top;" vertex="1" parent="168">
                    <mxGeometry x="20" y="188.3900000000001" width="80" height="30" as="geometry"/>
                </mxCell>
                <mxCell id="173" value="Handler2" style="rounded=1;whiteSpace=wrap;html=1;comic=1;fillColor=none;strokeColor=#d79b00;align=center;absoluteArcSize=0;verticalAlign=top;" vertex="1" parent="168">
                    <mxGeometry x="127.25" y="118.3900000000001" width="101.5" height="110" as="geometry"/>
                </mxCell>
                <mxCell id="174" value="read" style="rounded=1;whiteSpace=wrap;html=1;comic=1;fillColor=#ffe6cc;strokeColor=#d79b00;align=center;absoluteArcSize=0;verticalAlign=top;" vertex="1" parent="168">
                    <mxGeometry x="138.75" y="148.3900000000001" width="80" height="30" as="geometry"/>
                </mxCell>
                <mxCell id="175" value="send" style="rounded=1;whiteSpace=wrap;html=1;comic=1;fillColor=#ffe6cc;strokeColor=#d79b00;align=center;absoluteArcSize=0;verticalAlign=top;" vertex="1" parent="168">
                    <mxGeometry x="138.75" y="188.3900000000001" width="80" height="30" as="geometry"/>
                </mxCell>
                <mxCell id="176" style="edgeStyle=none;sketch=1;html=1;exitX=0.5;exitY=1;exitDx=0;exitDy=0;entryX=0.5;entryY=0;entryDx=0;entryDy=0;fontSize=10;fontColor=#6262FC;" edge="1" parent="168" source="180" target="170">
                    <mxGeometry relative="1" as="geometry">
                        <mxPoint x="187" y="240.42000000000007" as="sourcePoint"/>
                    </mxGeometry>
                </mxCell>
                <mxCell id="177" value="处理请求" style="edgeLabel;html=1;align=center;verticalAlign=middle;resizable=0;points=[];fontSize=10;fontColor=#000000;" vertex="1" connectable="0" parent="176">
                    <mxGeometry x="0.467" relative="1" as="geometry">
                        <mxPoint x="13" y="-8" as="offset"/>
                    </mxGeometry>
                </mxCell>
                <mxCell id="178" style="edgeStyle=none;sketch=1;html=1;exitX=0.5;exitY=1;exitDx=0;exitDy=0;entryX=0.5;entryY=0;entryDx=0;entryDy=0;fontSize=10;fontColor=#6262FC;" edge="1" parent="168" source="180" target="173">
                    <mxGeometry relative="1" as="geometry">
                        <mxPoint x="187" y="240.42000000000007" as="sourcePoint"/>
                    </mxGeometry>
                </mxCell>
                <mxCell id="179" value="处理请求" style="edgeLabel;html=1;align=center;verticalAlign=middle;resizable=0;points=[];fontSize=10;fontColor=#000000;" vertex="1" connectable="0" parent="178">
                    <mxGeometry x="-0.1485" y="-1" relative="1" as="geometry">
                        <mxPoint x="1" as="offset"/>
                    </mxGeometry>
                </mxCell>
                <mxCell id="180" value="SubReactor" style="rounded=1;whiteSpace=wrap;html=1;comic=1;fillColor=none;strokeColor=#d79b00;align=center;absoluteArcSize=0;verticalAlign=top;" vertex="1" parent="168">
                    <mxGeometry x="23.5" y="24.420000000000073" width="190" height="66" as="geometry"/>
                </mxCell>
                <mxCell id="181" value="select" style="rounded=1;whiteSpace=wrap;html=1;comic=1;fillColor=#ffe6cc;strokeColor=#d79b00;align=center;absoluteArcSize=0;verticalAlign=top;" vertex="1" parent="168">
                    <mxGeometry x="33.5" y="50.42000000000007" width="80" height="30" as="geometry"/>
                </mxCell>
                <mxCell id="182" value="dispatch" style="rounded=1;whiteSpace=wrap;html=1;comic=1;fillColor=#ffe6cc;strokeColor=#d79b00;align=center;absoluteArcSize=0;verticalAlign=top;" vertex="1" parent="168">
                    <mxGeometry x="126.5" y="50.42000000000007" width="76" height="30" as="geometry"/>
                </mxCell>
                <mxCell id="183" style="edgeStyle=none;sketch=1;html=1;exitX=0.5;exitY=1;exitDx=0;exitDy=0;entryX=0.5;entryY=0;entryDx=0;entryDy=0;fontSize=10;fontColor=#000000;" edge="1" parent="1" source="170" target="147">
                    <mxGeometry relative="1" as="geometry"/>
                </mxCell>
                <mxCell id="184" style="edgeStyle=none;sketch=1;html=1;exitX=0.5;exitY=1;exitDx=0;exitDy=0;entryX=0.5;entryY=0;entryDx=0;entryDy=0;fontSize=10;fontColor=#000000;" edge="1" parent="1" source="173" target="150">
                    <mxGeometry relative="1" as="geometry"/>
                </mxCell>
                <mxCell id="185" style="edgeStyle=orthogonalEdgeStyle;sketch=1;html=1;exitX=0.5;exitY=1;exitDx=0;exitDy=0;entryX=0.5;entryY=0;entryDx=0;entryDy=0;fontSize=10;fontColor=#000000;strokeColor=default;rounded=0;" edge="1" parent="1" source="103" target="180">
                    <mxGeometry relative="1" as="geometry"/>
                </mxCell>
                <mxCell id="165" style="edgeStyle=orthogonalEdgeStyle;sketch=1;html=1;exitX=0.5;exitY=1;exitDx=0;exitDy=0;entryX=0.5;entryY=0;entryDx=0;entryDy=0;fontSize=10;fontColor=#000000;rounded=0;" edge="1" parent="1" source="103" target="159">
                    <mxGeometry relative="1" as="geometry"/>
                </mxCell>
                <mxCell id="166" value="注册Channel到&lt;br&gt;子Reactor" style="edgeLabel;html=1;align=center;verticalAlign=middle;resizable=0;points=[];fontSize=10;fontColor=#000000;" vertex="1" connectable="0" parent="165">
                    <mxGeometry x="-0.2913" y="-2" relative="1" as="geometry">
                        <mxPoint y="-20" as="offset"/>
                    </mxGeometry>
                </mxCell>
                <mxCell id="186" value="Reactor主线程负责：&lt;br&gt;① 建立连接&lt;br&gt;② 将①连接得到的Channel注册到SubReactor的选择器上（如果是epoll就是将得到的connect_fd添加到子Reactor的epoll对象上）" style="rounded=0;whiteSpace=wrap;html=1;comic=1;fillColor=#f8cecc;strokeColor=#b85450;align=left;absoluteArcSize=0;verticalAlign=middle;" vertex="1" parent="1">
                    <mxGeometry x="710" y="1640" width="190" height="90" as="geometry"/>
                </mxCell>
                <mxCell id="187" value="Reactor子线程负责：&lt;br&gt;① IO读写&lt;br&gt;② 将读取到的内容分配到工作线程进行具体的业务处理" style="rounded=0;whiteSpace=wrap;html=1;comic=1;fillColor=#e1d5e7;strokeColor=#9673a6;align=left;absoluteArcSize=0;verticalAlign=middle;" vertex="1" parent="1">
                    <mxGeometry x="710" y="1740" width="190" height="80" as="geometry"/>
                </mxCell>
                <mxCell id="188" value="Worker负责：&lt;br&gt;① 具体业务处理&lt;br&gt;② 将处理完的结果交付给SubReactor发送回客户端" style="rounded=0;whiteSpace=wrap;html=1;comic=1;fillColor=#dae8fc;strokeColor=#6c8ebf;align=left;absoluteArcSize=0;verticalAlign=middle;" vertex="1" parent="1">
                    <mxGeometry x="710" y="1830" width="190" height="70" as="geometry"/>
                </mxCell>
                <mxCell id="189" value="Netty采用的是这种主从Reactor模型" style="rounded=0;whiteSpace=wrap;html=1;comic=1;fillColor=#ffe6cc;strokeColor=#d79b00;align=center;absoluteArcSize=0;verticalAlign=middle;sketch=1;" vertex="1" parent="1">
                    <mxGeometry x="660" y="1944" width="210" height="43" as="geometry"/>
                </mxCell>
                <mxCell id="190" value="参考资料：&lt;br&gt;https://www.modb.pro/db/189720" style="rounded=0;whiteSpace=wrap;html=1;comic=1;fillColor=#ffe6cc;strokeColor=#d79b00;align=left;absoluteArcSize=0;verticalAlign=middle;sketch=1;" vertex="1" parent="1">
                    <mxGeometry x="590" y="30" width="180" height="50" as="geometry"/>
                </mxCell>
            </root>
        </mxGraphModel>
    </diagram>
</mxfile>